<?xml version="1.0" standalone="no"?>
<!DOCTYPE svg PUBLIC "-//W3C//DTD SVG 1.1//EN"
  "http://www.w3.org/Graphics/SVG/1.1/DTD/svg11.dtd">
<svg width="205.5mm" height="154.49999999999997mm" viewBox="-101 -80.99999999999999 205.5 154.49999999999997" xmlns="http://www.w3.org/2000/svg" version="1.1">
	<title>svgOutput</title>
	<desc>made with tinkercad</desc>
<path d="M 103.5 72.49999999999999 L 84.23600006103516 72.49999999999999 L -82.73600006103516 72.49999999999999 L -100 72.49999999999999 L -100 58.90299987792967 L -100 -62.70299911499022 L -100 -79.99999999999999 L -82.72799682617188 -79.99999999999999 L -80.7229995727539 -79.99999999999999 L 84.1729965209961 -79.99999999999999 L 86.1780014038086 -79.99999999999999 L 103.5 -79.99999999999999 L 103.5 -67.92099761962889 L 103.5 -67.9189987182617 L 103.5 -62.70299911499022 L 103.5 58.90299987792967 L 103.5 61.99000167846678 L 103.5 72.49999999999999 M -81.5999984741211 62.03281784057616 L -81.46600341796875 62.05400085449217 L -81.15699768066406 62.00500106811522 L -81.03732299804688 61.943881988525376 L -80.87699890136719 61.861999511718736 L -80.73100280761719 61.71665954589842 L -80.65499877929688 61.64099884033202 L -80.55306243896484 61.43999862670897 L -80.51300048828125 61.36100006103514 L -80.46399688720703 61.050998687744126 L -80.51300048828125 60.74200057983397 L -80.65499877929688 60.462001800537095 L -80.73100280761719 60.38600158691405 L -80.8563232421875 60.260673522949205 L -80.87699890136719 60.24000167846678 L -81.09208679199219 60.130920410156236 L -81.15699768066406 60.09799957275389 L -81.3094253540039 60.07382965087889 L -81.46600341796875 60.04899978637694 L -81.50764465332031 60.05558013916014 L -81.5999984741211 60.07017898559569 L -81.73400115966797 60.04899978637694 L -82.04299926757812 60.09799957275389 L -82.322998046875 60.24000167846678 L -82.54499816894531 60.462001800537095 L -82.68699645996094 60.74200057983397 L -82.73600006103516 61.050998687744126 L -82.68699645996094 61.36100006103514 L -82.64693450927734 61.43999862670897 L -82.54499816894531 61.64099884033202 L -82.322998046875 61.861999511718736 L -82.04299926757812 62.00500106811522 L -81.73400115966797 62.05400085449217 L -81.69280242919922 62.04748916625975 L -81.5999984741211 62.03281784057616 M 31.29800033569336 58.90299987792967 L 31.29800033569336 59.00299835205077 L 35.90299987792969 59.00299835205077 L 35.90299987792969 58.90299987792967 L 84.23600006103516 58.90299987792967 L 86.24099731445312 58.90299987792967 L 88.10299682617188 58.90299987792967 L 88.10299682617188 -62.70299911499022 L -82.72799682617188 -62.70299911499022 L -84.3030014038086 -62.70299911499022 L -84.3030014038086 58.90299987792967 L -82.73600006103516 58.90299987792967 L -80.73100280761719 58.90299987792967 L -80.46399688720703 58.90299987792967 L 31.29800033569336 58.90299987792967 M 86.05000305175781 61.576999664306626 L 86.1197280883789 61.43999862670897 L 86.19200134277344 61.298000335693345 L 86.24099731445312 60.98799896240233 L 86.19200134277344 60.67800140380858 L 86.05000305175781 60.39899826049803 L 85.8280029296875 60.17699813842772 L 85.54900360107422 60.0340003967285 L 85.23899841308594 59.98500061035155 L 84.92900085449219 60.0340003967285 L 84.6500015258789 60.17699813842772 L 84.4280014038086 60.39899826049803 L 84.28500366210938 60.67800140380858 L 84.23600006103516 60.98799896240233 L 84.28500366210938 61.298000335693345 L 84.35778045654297 61.43999862670897 L 84.4280014038086 61.576999664306626 L 84.6500015258789 61.79899978637694 L 84.92900085449219 61.94100189208983 L 85.23899841308594 61.99000167846678 L 85.54900360107422 61.94100189208983 L 85.8280029296875 61.79899978637694 L 86.05000305175781 61.576999664306626 M -81.91999816894531 -67.94982147216795 L -81.7249984741211 -67.9189987182617 L -81.41500091552734 -67.96800231933592 L -81.13600158691406 -68.11100006103514 L -80.91400146484375 -68.33200073242186 L -80.77200317382812 -68.61199951171874 L -80.7229995727539 -68.92199707031249 L -80.77200317382812 -69.23100280761717 L -80.91400146484375 -69.51100158691405 L -81.03500366210938 -69.63200378417967 L -81.13600158691406 -69.73300170898436 L -81.41500091552734 -69.87499999999999 L -81.7249984741211 -69.9240036010742 L -82.03500366210938 -69.87499999999999 L -82.31400299072266 -69.73300170898436 L -82.41500091552734 -69.63200378417967 L -82.53600311279297 -69.51100158691405 L -82.67900085449219 -69.23100280761717 L -82.72799682617188 -68.92199707031249 L -82.67900085449219 -68.61199951171874 L -82.53600311279297 -68.33200073242186 L -82.31400299072266 -68.11100006103514 L -82.03500366210938 -67.96800231933592 L -81.91999816894531 -67.94982147216795 M 85.98699951171875 -68.33399963378905 L 86.01599884033203 -68.39118194580077 L 86.12899780273438 -68.61399841308592 L 86.1780014038086 -68.92299652099608 L 86.12899780273438 -69.23300170898436 L 86.01599884033203 -69.45581817626952 L 85.98699951171875 -69.51300048828124 L 85.86746215820312 -69.63200378417967 L 85.76499938964844 -69.73400115966795 L 85.48600006103516 -69.87699890136717 L 85.1760025024414 -69.92600250244139 L 84.86599731445312 -69.87699890136717 L 84.58699798583984 -69.73400115966795 L 84.48453521728516 -69.63200378417967 L 84.36499786376953 -69.51300048828124 L 84.22200012207031 -69.23300170898436 L 84.1729965209961 -68.92299652099608 L 84.22200012207031 -68.61399841308592 L 84.36499786376953 -68.33399963378905 L 84.58699798583984 -68.11199951171874 L 84.86599731445312 -67.97000122070311 L 85.1760025024414 -67.92099761962889 L 85.48600006103516 -67.97000122070311 L 85.76499938964844 -68.11199951171874 L 85.98699951171875 -68.33399963378905 z" fill="none" stroke="rgb(255,0,0)" stroke-width="0.001mm" />
</svg>