<?xml version="1.0" standalone="no"?>
<!DOCTYPE svg PUBLIC "-//W3C//DTD SVG 1.1//EN"
  "http://www.w3.org/Graphics/SVG/1.1/DTD/svg11.dtd">
<svg width="38mm" height="20.121000289916985mm" viewBox="-46 -50.999999999999986 38 20.121000289916985" xmlns="http://www.w3.org/2000/svg" version="1.1">
	<title>svgOutput</title>
	<desc>made with tinkercad</desc>
<path d="M -40.23699951171875 -49.42699813842772 L -39.96200180053711 -49.15200042724608 L -39.573001861572266 -48.763000488281236 L -39.14699935913086 -47.92699813842773 L -39 -46.99999999999999 L -39 -33.79999923706054 L -39 -31.878999710083 L -43.027000427246094 -31.878999710083 L -45 -31.878999710083 L -45 -46.99999999999999 L -44.85300064086914 -47.92699813842773 L -44.426998138427734 -48.763000488281236 L -44.03799819946289 -49.15200042724608 L -43.76300048828125 -49.42699813842772 L -42.926998138427734 -49.853000640869126 L -42 -49.999999999999986 L -41.073001861572266 -49.853000640869126 L -40.23699951171875 -49.42699813842772 M -30.23699951171875 -49.42699813842772 L -29.961999893188477 -49.15200042724608 L -29.572999954223633 -48.763000488281236 L -29.14699935913086 -47.92699813842773 L -29 -46.99999999999999 L -29 -33.79999923706054 L -29 -31.878999710083 L -33.027000427246094 -31.878999710083 L -35 -31.878999710083 L -35 -46.99999999999999 L -34.85300064086914 -47.92699813842773 L -34.426998138427734 -48.763000488281236 L -34.03799819946289 -49.15200042724608 L -33.76300048828125 -49.42699813842772 L -32.926998138427734 -49.853000640869126 L -32 -49.999999999999986 L -31.072999954223633 -49.853000640869126 L -30.23699951171875 -49.42699813842772 M -20.23699951171875 -49.42699813842772 L -19.961999893188477 -49.15200042724608 L -19.572999954223633 -48.763000488281236 L -19.14699935913086 -47.92699813842773 L -19 -46.99999999999999 L -19 -33.79999923706054 L -19 -31.878999710083 L -23.027000427246094 -31.878999710083 L -25 -31.878999710083 L -25 -46.99999999999999 L -24.85300064086914 -47.92699813842773 L -24.427000045776367 -48.763000488281236 L -24.038000106811523 -49.15200042724608 L -23.76300048828125 -49.42699813842772 L -22.927000045776367 -49.853000640869126 L -22 -49.999999999999986 L -21.072999954223633 -49.853000640869126 L -20.23699951171875 -49.42699813842772 M -10.237000465393066 -49.42699813842772 L -9.961999893188477 -49.15200042724608 L -9.572999954223633 -48.763000488281236 L -9.147000312805176 -47.92699813842773 L -9 -46.99999999999999 L -9 -33.79999923706054 L -9 -31.878999710083 L -13.027000427246094 -31.878999710083 L -15 -31.878999710083 L -15 -46.99999999999999 L -14.852999687194824 -47.92699813842773 L -14.427000045776367 -48.763000488281236 L -14.038000106811523 -49.15200042724608 L -13.762999534606934 -49.42699813842772 L -12.927000045776367 -49.853000640869126 L -12 -49.999999999999986 L -11.072999954223633 -49.853000640869126 L -10.237000465393066 -49.42699813842772 M -41.07099914550781 -34.49300003051757 L -41.02199935913086 -34.80199813842773 L -41.02421188354492 -34.81600189208984 L -41.07099914550781 -35.11199951171874 L -41.2130012512207 -35.39199829101562 L -41.435001373291016 -35.61299896240234 L -41.7140007019043 -35.75600051879882 L -42.02399826049805 -35.805000305175774 L -42.33399963378906 -35.75600051879882 L -42.612998962402344 -35.61299896240234 L -42.834999084472656 -35.39199829101562 L -42.97800064086914 -35.11199951171874 L -43.02478790283203 -34.81600189208984 L -43.027000427246094 -34.80199813842773 L -42.97800064086914 -34.49300003051757 L -42.834999084472656 -34.213001251220696 L -42.612998962402344 -33.99100112915038 L -42.33399963378906 -33.84899902343749 L -42.02399826049805 -33.79999923706054 L -41.7140007019043 -33.84899902343749 L -41.435001373291016 -33.99100112915038 L -41.2130012512207 -34.213001251220696 L -41.07099914550781 -34.49300003051757 M -31.070999145507812 -34.49300003051757 L -31.02199935913086 -34.80199813842773 L -31.024213790893555 -34.81600189208984 L -31.070999145507812 -35.11199951171874 L -31.21299934387207 -35.39199829101562 L -31.434999465942383 -35.61299896240234 L -31.714000701904297 -35.75600051879882 L -32.02399826049805 -35.805000305175774 L -32.33399963378906 -35.75600051879882 L -32.612998962402344 -35.61299896240234 L -32.834999084472656 -35.39199829101562 L -32.97800064086914 -35.11199951171874 L -33.02478790283203 -34.81600189208984 L -33.027000427246094 -34.80199813842773 L -32.97800064086914 -34.49300003051757 L -32.834999084472656 -34.213001251220696 L -32.612998962402344 -33.99100112915038 L -32.33399963378906 -33.84899902343749 L -32.02399826049805 -33.79999923706054 L -31.714000701904297 -33.84899902343749 L -31.434999465942383 -33.99100112915038 L -31.21299934387207 -34.213001251220696 L -31.070999145507812 -34.49300003051757 M -21.070999145507812 -34.49300003051757 L -21.02199935913086 -34.80199813842773 L -21.024213790893555 -34.81600189208984 L -21.070999145507812 -35.11199951171874 L -21.21299934387207 -35.39199829101562 L -21.434999465942383 -35.61299896240234 L -21.714000701904297 -35.75600051879882 L -22.02400016784668 -35.805000305175774 L -22.333999633789062 -35.75600051879882 L -22.613000869750977 -35.61299896240234 L -22.834999084472656 -35.39199829101562 L -22.97800064086914 -35.11199951171874 L -23.02478790283203 -34.81600189208984 L -23.027000427246094 -34.80199813842773 L -22.97800064086914 -34.49300003051757 L -22.834999084472656 -34.213001251220696 L -22.613000869750977 -33.99100112915038 L -22.333999633789062 -33.84899902343749 L -22.02400016784668 -33.79999923706054 L -21.714000701904297 -33.84899902343749 L -21.434999465942383 -33.99100112915038 L -21.21299934387207 -34.213001251220696 L -21.070999145507812 -34.49300003051757 M -11.071000099182129 -34.49300003051757 L -11.022000312805176 -34.80199813842773 L -11.024212837219238 -34.81600189208984 L -11.071000099182129 -35.11199951171874 L -11.213000297546387 -35.39199829101562 L -11.4350004196167 -35.61299896240234 L -11.71399974822998 -35.75600051879882 L -12.02400016784668 -35.805000305175774 L -12.333999633789062 -35.75600051879882 L -12.61299991607666 -35.61299896240234 L -12.835000038146973 -35.39199829101562 L -12.977999687194824 -35.11199951171874 L -13.024786949157715 -34.81600189208984 L -13.027000427246094 -34.80199813842773 L -12.977999687194824 -34.49300003051757 L -12.835000038146973 -34.213001251220696 L -12.61299991607666 -33.99100112915038 L -12.333999633789062 -33.84899902343749 L -12.02400016784668 -33.79999923706054 L -11.71399974822998 -33.84899902343749 L -11.4350004196167 -33.99100112915038 L -11.213000297546387 -34.213001251220696 L -11.071000099182129 -34.49300003051757 z" fill="none" stroke="rgb(255,0,0)" stroke-width="0.001mm" />
</svg>